<svg width="16" height="16" viewBox="0 0 508 508" fill="none" xmlns="http://www.w3.org/2000/svg">
<path d="M321.997 150.712C321.401 150.568 320.844 150.299 320.363 149.925C319.883 149.551 319.491 149.08 319.215 148.544C318.938 148.008 318.783 147.42 318.76 146.821C318.738 146.22 318.848 145.624 319.084 145.07C327.226 125.716 330.819 110.23 325.021 103.747C309.666 86.5471 248.085 120.749 228.451 132.333C227.925 132.642 227.337 132.837 226.728 132.903C226.118 132.969 225.501 132.906 224.918 132.719C224.336 132.531 223.801 132.223 223.351 131.815C222.902 131.407 222.548 130.909 222.313 130.356C214.06 111.043 205.384 97.6094 196.589 97.0268C173.279 95.4688 154.491 162.187 148.991 183.932C148.844 184.515 148.57 185.06 148.188 185.528C147.805 185.998 147.323 186.381 146.775 186.651C146.227 186.921 145.626 187.072 145.012 187.094C144.399 187.116 143.788 187.009 143.221 186.778C123.406 178.825 107.545 175.316 100.914 180.98C83.305 195.978 118.315 256.126 130.175 275.304C130.492 275.816 130.692 276.391 130.76 276.987C130.829 277.582 130.765 278.186 130.573 278.755C130.381 279.325 130.065 279.847 129.647 280.286C129.228 280.725 128.718 281.07 128.15 281.298C108.384 289.359 94.6306 297.834 94.0272 306.424C92.439 329.192 160.74 347.544 183.01 352.916C183.605 353.061 184.16 353.33 184.64 353.704C185.118 354.077 185.509 354.548 185.785 355.083C186.061 355.618 186.215 356.205 186.237 356.803C186.26 357.402 186.151 357.998 185.916 358.551C177.773 377.905 174.181 393.398 179.979 399.874C195.334 417.074 256.921 382.877 276.556 371.293C277.081 370.984 277.67 370.789 278.28 370.722C278.889 370.655 279.507 370.717 280.09 370.905C280.673 371.093 281.207 371.402 281.657 371.81C282.106 372.219 282.46 372.717 282.694 373.271C290.947 392.578 299.616 406.012 308.417 406.601C331.728 408.153 350.516 341.44 356.009 319.688C356.157 319.106 356.432 318.562 356.816 318.094C357.2 317.625 357.682 317.243 358.231 316.974C358.779 316.705 359.381 316.554 359.995 316.533C360.608 316.511 361.219 316.619 361.786 316.85C381.601 324.803 397.455 328.304 404.093 322.648C421.702 307.65 386.684 247.495 374.825 228.317C374.51 227.804 374.312 227.229 374.245 226.634C374.177 226.039 374.242 225.436 374.434 224.868C374.626 224.299 374.941 223.777 375.358 223.338C375.775 222.899 376.284 222.552 376.85 222.323C396.623 214.261 410.376 205.786 410.973 197.196C412.568 174.428 344.26 156.078 321.997 150.712Z" fill="currentColor"/>
</svg>
